<svg width="120" height="120" viewBox="0 0 120 120" fill="none" xmlns="http://www.w3.org/2000/svg">
<g filter="url(#filter0_d_311_621)">
<rect x="20" y="16" width="80" height="80" rx="30" fill="#FFC65D"/>
<path d="M49.2184 29.5219C48.2705 29.8032 47.5934 30.1886 46.9476 30.8344C46.2809 31.5011 45.8955 32.1261 45.6143 33.0219C45.3747 33.8032 45.333 36.6573 45.5622 37.5011C45.7601 38.2407 46.1976 39.0636 46.6768 39.5844C46.9893 39.9282 47.083 40.1053 47.083 40.3969V40.7615L43.9163 41.824C42.0622 42.4386 40.6143 42.9803 40.4059 43.1365C39.9268 43.4907 39.4997 44.1469 39.4268 44.6678C39.333 45.3344 39.4163 59.7615 39.5205 60.0219L39.6038 60.2615H37.2809C35.9997 60.2615 34.7809 60.3136 34.5622 60.3657C34.0934 60.5011 33.4684 61.1678 33.3851 61.6365C33.3538 61.824 33.333 63.6782 33.3538 65.7511C33.3851 69.3865 33.3955 69.5323 33.6038 69.8136C33.7184 69.9698 33.9788 70.2094 34.1663 70.3344C34.5101 70.574 34.5101 70.574 39.0726 70.574H43.6455V75.7303V80.8865H40.208H36.7705V81.7719V82.6573H59.9997H83.2289V81.7719V80.8865H80.8122L78.3851 80.8761L78.7914 80.6469C79.0101 80.5219 79.5934 80.1365 80.083 79.7928C86.1351 75.5428 88.3226 67.5844 85.2809 60.8344C83.833 57.6157 81.2393 54.9178 78.0726 53.3448C77.4476 53.0323 76.6559 52.699 76.333 52.5948C75.9997 52.4907 75.7289 52.3761 75.7289 52.3344C75.7289 52.3032 75.8539 52.0428 76.0101 51.7615C76.2497 51.3344 76.3018 51.1261 76.3018 50.5219C76.2914 49.6261 76.0309 49.0011 75.4268 48.4073C75.0309 48.0219 74.2393 47.6886 66.7601 44.699L58.5309 41.4073L56.2497 41.0219C53.9997 40.6573 53.958 40.6365 53.958 40.3969C53.958 40.2511 54.1663 39.8969 54.4476 39.5532C55.458 38.3136 55.7913 37.0636 55.6976 34.8448C55.6247 32.9386 55.2288 31.9386 54.1351 30.8553C52.8018 29.5323 50.9163 29.0219 49.2184 29.5219ZM51.9997 31.3865C52.6768 31.7198 53.3018 32.3657 53.6247 33.0532C53.8851 33.5948 53.9059 33.7719 53.9372 35.2094C53.9684 36.6261 53.9476 36.8448 53.7393 37.3969C53.1247 39.0428 51.2601 39.9803 49.583 39.4907C48.4372 39.1573 47.4476 38.0844 47.1976 36.9073C46.9476 35.7823 47.0934 33.6573 47.4684 32.9282C47.8434 32.2094 48.7497 31.4594 49.583 31.1886C50.1038 31.0219 51.4788 31.1365 51.9997 31.3865ZM49.9476 41.2928C50.5309 41.3761 51.3434 41.3136 52.0101 41.1469C52.2913 41.074 52.2913 41.074 52.2913 41.5844V42.0948L55.1768 42.5844L58.0622 43.074L66.0309 46.2511C74.8226 49.7615 74.583 49.6365 74.583 50.5115C74.583 50.8865 74.5205 51.0323 74.2705 51.2823C73.9268 51.6365 73.4268 51.7615 72.9684 51.6261C72.7914 51.574 69.6455 50.4073 65.958 49.0219L59.2705 46.5115H57.4997H55.7288V63.699V80.8865H53.5413H51.3538V69.324V57.7615H50.5205H49.6872V69.324V80.8865H47.5518H45.4163V75.7303V70.574H45.6663C45.9684 70.574 46.5205 70.2094 46.8122 69.8136C47.0205 69.5323 47.0309 69.3865 47.0622 65.699C47.083 63.1678 47.0622 61.7511 46.9788 61.4907C46.833 60.9803 46.3434 60.5011 45.8226 60.3657L45.4163 60.2511V53.3865V46.5115H44.5309H43.6455V52.9282C43.6455 58.6782 43.6247 59.3761 43.4788 59.6365C42.958 60.5115 41.6559 60.4386 41.208 59.5011C41.0518 59.1573 41.0413 58.5115 41.0622 51.9907C41.0934 44.9803 41.0934 44.8448 41.3018 44.6365C41.4372 44.5115 42.9268 43.9594 45.1559 43.2094L48.8018 41.9803L48.833 41.5219C48.8643 41.1157 48.8851 41.0844 49.0934 41.1469C49.2184 41.1782 49.6038 41.2511 49.9476 41.2928ZM63.833 50.074C68.2289 51.7198 68.6247 51.8865 68.3122 51.9594C66.9268 52.324 65.9684 52.6157 65.2184 52.9178C62.3538 54.0844 59.7497 56.3344 57.9476 59.2094L57.3955 60.0844V54.1886V48.2823H58.208C58.9997 48.2719 59.0934 48.3032 63.833 50.074ZM72.4268 53.4907C77.7914 54.0115 82.1664 57.3865 84.1039 62.5011C84.6872 64.0115 84.833 64.9698 84.8434 67.0844C84.8434 68.6157 84.8018 69.2615 84.6559 69.949C83.4893 75.3448 79.3539 79.4803 73.958 80.6469C73.2705 80.7928 72.6247 80.8344 71.0934 80.8344C69.3747 80.824 68.9893 80.7928 68.1247 80.5844C65.6247 79.9594 63.4788 78.8032 61.7288 77.1365C56.1038 71.7719 55.9997 62.9073 61.4997 57.449C64.0518 54.9073 67.333 53.5219 71.0414 53.4073C71.2393 53.3969 71.8643 53.4386 72.4268 53.4907ZM43.0726 63.0844C41.0622 64.4282 40.8538 64.5323 40.208 64.5323C39.5622 64.5323 39.3538 64.4282 37.3434 63.0844L35.7809 62.0323H40.208H44.6351L43.0726 63.0844ZM36.7601 64.7719C38.7601 66.1053 39.1038 66.2511 40.2601 66.2511C41.3851 66.2407 41.5726 66.1678 43.6872 64.7511C44.4684 64.2198 45.1768 63.7615 45.2601 63.7303C45.3955 63.6886 45.4163 64.0532 45.4163 66.2928V68.9073H40.2601H35.1038V66.2928C35.1038 64.2407 35.1351 63.699 35.2393 63.7615C35.3018 63.8032 35.9893 64.2615 36.7601 64.7719ZM57.8122 74.9178C58.9476 76.949 60.8955 78.949 63.0726 80.3136L63.9893 80.8865H60.6976H57.3955V77.6053C57.3955 75.8032 57.4163 74.324 57.4372 74.324C57.458 74.324 57.6351 74.5948 57.8122 74.9178Z" fill="white"/>
<path d="M69.6357 55.2303C67.6462 55.4803 65.3024 56.4803 63.7399 57.7303L63.3545 58.0324L63.6253 58.3345C63.7712 58.5116 64.0212 58.8032 64.1774 58.9803L64.4691 59.3241L65.2295 58.772C65.6566 58.4803 66.3753 58.0532 66.8337 57.8345C67.6878 57.4386 69.4691 56.9282 70.0107 56.9282H70.3128V58.1782V59.4282H71.1982H72.0837V58.1678V56.9074L72.667 56.9803C76.1462 57.4074 79.4378 60.0324 80.7816 63.4386C81.0316 64.0636 81.4482 65.7824 81.4587 66.1678C81.4587 66.272 81.1357 66.3032 80.2087 66.3032H78.9587V67.1886V68.0741H80.2191H81.4691L81.3962 68.5636C81.1462 70.3136 80.3649 72.1991 79.3857 73.4282C79.2087 73.647 79.0628 73.8657 79.0628 73.897C79.0732 73.9907 80.2087 74.897 80.3128 74.897C80.4899 74.897 81.3337 73.6782 81.8232 72.7511C84.2607 68.0428 83.4274 62.4595 79.6982 58.7095C77.9066 56.9074 75.6982 55.7616 73.1878 55.3136C72.3545 55.1678 70.4482 55.1261 69.6357 55.2303Z" fill="white"/>
<path d="M61.8029 59.6365C60.7508 60.9282 59.8549 62.8136 59.4174 64.6053C59.1883 65.5845 59.1049 67.7407 59.2612 68.8032C59.657 71.4595 60.8341 73.824 62.7195 75.6886C66.4695 79.4178 72.0529 80.2511 76.7612 77.8136C77.6883 77.324 78.907 76.4803 78.907 76.3032C78.907 76.199 78.0008 75.0636 77.907 75.0532C77.8758 75.0532 77.657 75.199 77.4383 75.3761C76.2091 76.3553 74.3237 77.1365 72.5841 77.3865L72.0841 77.4595V76.2095V74.949H71.1987H70.3133V76.199C70.3133 77.1261 70.282 77.449 70.1883 77.449C69.7924 77.4386 68.0737 77.022 67.4487 76.772C65.0529 75.824 62.8966 73.7928 61.8237 71.4803C61.4174 70.6053 61.0945 69.5011 60.9904 68.6574L60.9174 68.074H62.1779H63.4383V67.1886V66.3032H62.1883H60.9383V66.0011C60.9383 65.4595 61.4487 63.6782 61.8445 62.824C62.0633 62.3657 62.4904 61.647 62.782 61.2199L63.3341 60.4594L62.9904 60.1678C62.8133 60.0011 62.5216 59.7511 62.3445 59.6157L62.032 59.3553L61.8029 59.6365Z" fill="white"/>
<path d="M70.3125 64.6365V68.074H72.4479H74.5833V67.1886V66.3031H73.3333H72.0833V63.7511V61.199H71.1979H70.3125V64.6365Z" fill="white"/>
<path d="M33.3333 81.7719V82.6573H34.2187H35.1145L35.0833 81.7928L35.052 80.9386L34.1978 80.9074L33.3333 80.8761V81.7719Z" fill="white"/>
<path d="M84.9687 80.9594C84.927 80.9907 84.8958 81.3969 84.8958 81.8448V82.6573H85.7812H86.6666V81.7719V80.8865H85.8541C85.4062 80.8865 84.9999 80.9178 84.9687 80.9594Z" fill="white"/>
</g>
<defs>
<filter id="filter0_d_311_621" x="0" y="0" width="120" height="120" filterUnits="userSpaceOnUse" color-interpolation-filters="sRGB">
<feFlood flood-opacity="0" result="BackgroundImageFix"/>
<feColorMatrix in="SourceAlpha" type="matrix" values="0 0 0 0 0 0 0 0 0 0 0 0 0 0 0 0 0 0 127 0" result="hardAlpha"/>
<feOffset dy="4"/>
<feGaussianBlur stdDeviation="10"/>
<feComposite in2="hardAlpha" operator="out"/>
<feColorMatrix type="matrix" values="0 0 0 0 1 0 0 0 0 0.776471 0 0 0 0 0.364706 0 0 0 0.3 0"/>
<feBlend mode="normal" in2="BackgroundImageFix" result="effect1_dropShadow_311_621"/>
<feBlend mode="normal" in="SourceGraphic" in2="effect1_dropShadow_311_621" result="shape"/>
</filter>
</defs>
</svg>
