<svg width="120" height="120" viewBox="0 0 120 120" fill="none" xmlns="http://www.w3.org/2000/svg">
<g filter="url(#filter0_d_311_749)">
<rect x="20" y="16" width="80" height="80" rx="30" fill="#FF5966"/>
<g clip-path="url(#clip0_311_749)">
<path d="M34.9893 31.5626C34.406 31.771 33.9893 32.1147 33.6768 32.646L33.3851 33.1355L33.3539 41.2397C33.333 49.323 33.333 49.3335 33.5518 49.8543C33.7914 50.4168 34.3122 50.9376 34.8539 51.1668C35.1351 51.2814 36.0726 51.3126 39.4268 51.3126C43.5101 51.3126 43.656 51.3022 43.8539 51.1043C44.1143 50.8439 44.1247 50.3647 43.8643 50.0522L43.6664 49.8022L39.4789 49.7501L35.2914 49.698L35.0935 49.448C34.906 49.2189 34.8955 48.948 34.8955 42.7605V36.3126H45.3643H55.833V37.9689C55.833 39.6772 55.9268 40.198 56.2497 40.3751C56.5622 40.5418 56.958 40.5001 57.1872 40.271C57.3955 40.0626 57.406 39.9585 57.3747 36.521L57.3435 33.0001L57.031 32.5418C56.6664 32.0314 56.1768 31.6772 55.6351 31.521C55.031 31.3543 35.4685 31.3855 34.9893 31.5626ZM55.5726 33.2397C55.7914 33.448 55.833 33.5939 55.833 34.1251V34.7501H45.3643H34.8955V34.1668C34.8955 33.6668 34.9372 33.5522 35.1976 33.2814L35.4997 32.9793H45.4164H55.3226L55.5726 33.2397Z" fill="white"/>
<path d="M38.7813 39.0209C38.2917 39.2188 38.1979 39.8334 38.5938 40.2188L38.8438 40.4792H45.4167C51.8438 40.4792 51.9792 40.4792 52.1875 40.2709C52.5 39.9584 52.4688 39.4063 52.125 39.1355C51.8542 38.9167 51.7709 38.9167 45.4271 38.9272C41.8959 38.9272 38.9063 38.9688 38.7813 39.0209Z" fill="white"/>
<path d="M62.0413 39.1354C61.6975 39.4063 61.6663 39.9583 61.9788 40.2708C62.1871 40.4792 62.3225 40.4792 71.6767 40.4792H81.1663L81.4684 40.7813C81.7288 41.0521 81.7705 41.1667 81.7705 41.6667V42.25H76.208C70.7496 42.25 70.6455 42.25 70.3746 42.4688C70.0309 42.7396 69.9996 43.2917 70.3121 43.6042C70.5205 43.8125 70.6559 43.8125 76.1455 43.8125H81.7705V49.4167C81.7705 55.6458 81.8017 55.375 81.0621 55.5833C80.8538 55.6354 80.083 55.6875 79.3538 55.6875C78.1559 55.6875 77.9996 55.7083 77.8121 55.8958C77.5517 56.1562 77.5413 56.6667 77.8017 56.9271C77.9163 57.0417 78.1767 57.1667 78.385 57.2083C79.0205 57.3229 81.3642 57.1979 81.7705 57.0208C82.3017 56.7917 82.7913 56.3542 83.0517 55.8542C83.2809 55.4271 83.2809 55.4167 83.3121 48.2917C83.333 42.8646 83.3121 41.0417 83.208 40.6875C83.0309 40.0208 82.1975 39.2083 81.5413 39.0417C81.1871 38.9479 78.5413 38.9167 71.6871 38.9167C62.3642 38.9167 62.3225 38.9167 62.0413 39.1354Z" fill="white"/>
<path d="M41.2296 42.4064C40.8441 42.6148 40.74 43.1252 41.0212 43.4898L41.2191 43.7606L45.3441 43.7919C49.365 43.8127 49.4796 43.8127 49.6879 43.6044C50.0004 43.2919 49.9691 42.7398 49.6254 42.4689C49.3546 42.2606 49.24 42.2502 45.4275 42.2502C42.2087 42.2606 41.4587 42.2814 41.2296 42.4064Z" fill="white"/>
<path d="M58.7504 42.3126C55.6462 42.6876 53.0629 43.6355 50.8025 45.2396C49.7087 46.0105 47.9275 47.7917 47.1567 48.8855C45.8442 50.7292 44.8025 53.2188 44.4171 55.4271C44.1462 56.9688 44.1671 59.448 44.4587 60.9688C45.5942 66.7188 49.615 71.3021 55.1254 73.125C57.2921 73.8334 60.0942 74.0834 62.2087 73.7396L62.5942 73.6875L62.6254 76.3438L62.6567 79L62.9692 79.4584C63.3442 79.9792 63.8337 80.3334 64.3858 80.4792C64.6462 80.5521 68.2608 80.573 74.865 80.5625C86.0525 80.5313 85.1879 80.5834 85.9275 79.8438C86.6567 79.1146 86.615 79.7396 86.6462 70.7605C86.6671 62.6771 86.6671 62.6667 86.4483 62.1459C86.2087 61.5834 85.6879 61.0626 85.1462 60.8334C84.865 60.7188 83.865 60.6876 80.2087 60.6876H75.615L75.6983 59.9792C75.8337 58.823 75.7712 56.5521 75.5733 55.4271C74.8337 51.1251 72.2296 47.1771 68.5942 44.8334C66.8962 43.7292 64.6254 42.8438 62.7087 42.5209C61.7192 42.3438 59.4379 42.2292 58.7504 42.3126ZM62.5525 44.073C67.5525 44.948 71.8962 48.7188 73.5212 53.6146C74.0421 55.2084 74.2087 56.3334 74.1983 58.2396C74.1879 59.1563 74.1358 60.073 74.0942 60.2709L74.0004 60.6355H73.1254C72.5942 60.6355 72.2504 60.5938 72.2608 60.5313C72.615 58.2709 72.4483 56.0105 71.7608 54.0105C71.2504 52.5209 70.0942 50.5521 69.615 50.3646C69.2817 50.2396 68.865 50.4271 68.6462 50.823C68.4692 51.1459 68.3962 50.9792 69.3546 52.5417C69.9483 53.5105 70.4275 54.7396 70.6775 55.9584C70.8858 56.9584 70.9171 58.8855 70.74 59.9271L70.6046 60.6876H67.5212C64.115 60.6876 63.9483 60.7188 63.3025 61.3751C62.6671 62.0209 62.6567 62.0209 62.6046 65.4792L62.5525 68.6563L62.0317 68.7917C61.2504 69.0001 58.8754 68.9792 57.8754 68.7709C56.6462 68.5001 55.4171 68.0209 54.4587 67.4376C53.0421 66.573 53.0317 66.573 52.7192 66.7396C52.3442 66.948 52.1567 67.3646 52.2817 67.698C52.5108 68.3021 55.1046 69.6771 56.8025 70.1146C58.3337 70.5 59.7608 70.625 61.1462 70.4792C61.7921 70.4167 62.365 70.3542 62.4379 70.3438C62.5733 70.323 62.6567 71.9271 62.5212 72.0625C62.3233 72.2605 60.0317 72.3959 58.7712 72.2709C52.2921 71.6355 47.24 67.0417 45.9796 60.6251C45.6983 59.2396 45.7296 56.7084 46.0317 55.2709C47.1046 50.198 50.74 46.1355 55.6046 44.5521C56.4587 44.2709 57.6775 44.0209 58.8546 43.8751C59.5108 43.7917 61.5942 43.9063 62.5525 44.073ZM84.8442 62.5105C85.0629 62.7188 85.1046 62.8646 85.1046 63.3959V64.0209H74.6358H64.1671V63.3751C64.1671 62.8542 64.2087 62.6876 64.3962 62.4896L64.615 62.2501H74.6046H84.5942L84.8442 62.5105ZM85.1046 72V78.4167L84.8025 78.7188L84.5004 79.0209H74.5837H64.6775L64.4275 78.7605L64.1671 78.5105V72.0417V65.5834H74.6358H85.1046V72Z" fill="white"/>
<path d="M58.7291 45.6875C54.7083 46.1458 51.2291 48.3958 49.2187 51.8333C47.125 55.4271 46.9896 59.8125 48.8541 63.5521C49.875 65.6042 50.3958 66.1354 51.0104 65.7396C51.1458 65.6458 51.3125 65.4583 51.375 65.3229C51.5 65.0417 51.4687 64.9687 50.6458 63.625C49.625 61.9479 49.1354 60.1458 49.1458 58.0312C49.1458 56.625 49.2916 55.7292 49.6979 54.5312C50.9583 50.8437 54.2708 48.0208 58.125 47.3437C59.1771 47.1667 61.1146 47.1875 62.125 47.4062C63.3333 47.6562 64.5729 48.1354 65.5416 48.7292C67.1041 49.6875 66.9375 49.6146 67.2604 49.4375C67.6562 49.2187 67.8437 48.8021 67.7187 48.4687C67.5208 47.9687 65.5208 46.8125 63.9271 46.2812C62.3437 45.75 60.2812 45.5104 58.7291 45.6875Z" fill="white"/>
<path d="M59.7398 49.021C59.3336 49.1772 59.219 49.4376 59.2294 50.198C59.2294 50.823 59.2606 50.948 59.469 51.1147C59.6044 51.2293 59.844 51.3126 60.0002 51.3126C60.1565 51.3126 60.3961 51.2293 60.5315 51.1147C60.7398 50.948 60.7711 50.823 60.7711 50.1876C60.7815 49.573 60.7398 49.4064 60.5732 49.2397C60.3127 48.9897 60.0107 48.9064 59.7398 49.021Z" fill="white"/>
<path d="M54.739 52.3542C54.4161 52.4792 54.239 52.75 54.239 53.0937C54.239 53.3646 54.4994 53.6771 56.0307 55.2083C57.7182 56.8958 57.8223 57.0312 57.7078 57.25C57.4994 57.6354 57.5515 58.6458 57.8119 59.1771C58.614 60.8229 61.0203 60.9792 61.9994 59.4375L62.3015 58.9687L65.4682 58.9167C68.5619 58.8646 68.6453 58.8542 68.864 58.6354C69.1453 58.3542 69.1661 57.8542 68.9057 57.5625C68.7286 57.3646 68.5932 57.3542 65.5515 57.3542H62.3953L62.0723 56.8333C61.614 56.0833 60.9057 55.6875 60.0203 55.6875C59.6557 55.6875 59.2598 55.7396 59.1453 55.8021C58.9473 55.9062 58.7494 55.7396 57.1453 54.1458C56.1661 53.1771 55.2703 52.3542 55.1557 52.3229C55.0411 52.2917 54.8536 52.3021 54.739 52.3542ZM60.5932 57.4792C61.2286 58.0729 60.5411 59.2187 59.7182 58.9062C59.3432 58.7708 59.1765 58.5104 59.1661 58.0937C59.1661 57.3437 60.0411 56.9583 60.5932 57.4792Z" fill="white"/>
<path d="M51.0934 57.5627C50.833 57.8543 50.8538 58.3543 51.135 58.6356C51.3225 58.8335 51.4788 58.8647 52.0934 58.8647C52.7392 58.8647 52.8538 58.8335 53.0309 58.6147C53.2913 58.3022 53.2809 57.8231 53.0204 57.5627C52.7184 57.2606 51.3642 57.2606 51.0934 57.5627Z" fill="white"/>
<path d="M59.4694 65.052C59.2611 65.2187 59.2298 65.3437 59.2298 66C59.2194 66.6979 59.2402 66.7604 59.5111 67C59.8652 67.302 60.0944 67.3125 60.4486 67.0416C60.7819 66.7812 60.9069 66.1145 60.7402 65.5C60.5631 64.8541 59.9694 64.6458 59.4694 65.052Z" fill="white"/>
<path d="M67.812 68.396C67.4995 68.7085 67.5308 69.2605 67.8745 69.5314C68.1454 69.7501 68.2391 69.7501 74.5516 69.7501C79.9579 69.7501 80.9891 69.7293 81.2391 69.5939C81.7183 69.3543 81.8016 68.9064 81.4475 68.4585L81.2391 68.1876H74.6245C68.1558 68.1876 68.0204 68.1876 67.812 68.396Z" fill="white"/>
<path d="M70.3326 71.7292C69.9992 72.0417 70.0201 72.5833 70.3847 72.875C70.6555 73.0833 70.7284 73.0937 74.6972 73.0625C79.1451 73.0312 78.9888 73.0521 79.1243 72.3854C79.1763 72.1146 79.1347 72 78.9263 71.7917L78.6555 71.5208H74.6034C70.6763 71.5208 70.5513 71.5313 70.3326 71.7292Z" fill="white"/>
<path d="M67.8323 75.0938C67.5093 75.4376 67.5302 75.9272 67.8739 76.198C68.1448 76.4167 68.2385 76.4167 74.6552 76.4167H81.1552L81.4052 76.1563C81.551 76.0209 81.6656 75.7813 81.6656 75.6355C81.6656 75.4897 81.551 75.2501 81.4052 75.1147L81.1552 74.8542H74.6031H68.051L67.8323 75.0938Z" fill="white"/>
<path d="M38.8023 45.698C38.2919 45.9896 38.1982 46.4271 38.5523 46.875L38.7607 47.1459H42.4586C46.0107 47.1459 46.1565 47.1355 46.3544 46.9375C46.6148 46.6771 46.6253 46.198 46.3648 45.8855L46.1669 45.6355L42.5836 45.6146C40.1044 45.5938 38.9482 45.625 38.8023 45.698Z" fill="white"/>
<path d="M74.7185 46.5209C74.2602 46.7084 74.1248 47.4167 74.479 47.7709C74.6769 47.9688 74.8227 47.9792 76.7081 47.9792H78.7394L78.9477 47.7084C79.0727 47.5522 79.1664 47.3647 79.1664 47.2917C79.1664 47.0209 78.9269 46.6459 78.6769 46.5313C78.3748 46.3959 75.0623 46.3855 74.7185 46.5209Z" fill="white"/>
<path d="M76.927 49.8543C76.4166 50.0522 76.2603 50.7085 76.6145 51.1043C76.7812 51.2814 76.9374 51.3126 77.7708 51.3126C78.6874 51.3126 78.7499 51.3022 78.9478 51.0418C79.0728 50.8855 79.1666 50.698 79.1666 50.6251C79.1666 50.323 78.9062 49.9585 78.6145 49.8543C78.2499 49.7293 77.2291 49.7293 76.927 49.8543Z" fill="white"/>
<path d="M38.1761 59.1668C37.6969 59.3751 37.1969 59.8334 36.9469 60.3126C36.7177 60.7397 36.7177 60.7397 36.6865 67.9168C36.6552 76.0105 36.6344 75.7189 37.4261 76.5001C38.2282 77.2918 37.6448 77.2501 48.2282 77.2501C57.6344 77.2501 57.6761 77.2501 57.9573 77.0314C58.3011 76.7605 58.3323 76.2084 58.0198 75.8959C57.8115 75.6876 57.6761 75.6876 48.3219 75.6876H38.8323L38.5302 75.3855L38.2282 75.0834V69.5001V63.9272L40.5302 63.8959C42.8011 63.8647 42.8323 63.8647 43.0302 63.6147C43.2907 63.3022 43.2802 62.823 43.0198 62.5626C42.8219 62.3647 42.6761 62.3543 40.5094 62.3543H38.2073L38.249 61.6668C38.3115 60.6355 38.4157 60.5834 40.1552 60.5834C41.5927 60.5834 42.124 60.4793 42.2907 60.1668C42.4573 59.8543 42.4157 59.4584 42.1865 59.2293C41.999 59.0418 41.8427 59.0209 40.2386 59.0209C39.0302 59.0314 38.3948 59.073 38.1761 59.1668Z" fill="white"/>
<path d="M41.0517 67.6251C40.8017 67.9376 40.7809 68.073 40.9475 68.4376C41.1455 68.8542 41.51 68.9376 43.0725 68.8959C44.4267 68.8647 44.51 68.8542 44.6975 68.6147C44.9684 68.2813 44.9475 67.8542 44.6559 67.5834C44.4267 67.3647 44.3121 67.3542 42.8434 67.3542H41.26L41.0517 67.6251Z" fill="white"/>
<path d="M41.0728 70.9584C40.8644 71.1668 40.8228 71.2813 40.8748 71.5522C41.0103 72.198 40.979 72.198 44.0623 72.2292L46.8748 72.2605L47.1353 72.0001C47.4686 71.6668 47.479 71.2188 47.1561 70.9168C46.9165 70.698 46.8436 70.6876 44.1248 70.6876H41.3436L41.0728 70.9584Z" fill="white"/>
</g>
</g>
<defs>
<filter id="filter0_d_311_749" x="0" y="0" width="120" height="120" filterUnits="userSpaceOnUse" color-interpolation-filters="sRGB">
<feFlood flood-opacity="0" result="BackgroundImageFix"/>
<feColorMatrix in="SourceAlpha" type="matrix" values="0 0 0 0 0 0 0 0 0 0 0 0 0 0 0 0 0 0 127 0" result="hardAlpha"/>
<feOffset dy="4"/>
<feGaussianBlur stdDeviation="10"/>
<feComposite in2="hardAlpha" operator="out"/>
<feColorMatrix type="matrix" values="0 0 0 0 1 0 0 0 0 0.34902 0 0 0 0 0.4 0 0 0 0.2 0"/>
<feBlend mode="normal" in2="BackgroundImageFix" result="effect1_dropShadow_311_749"/>
<feBlend mode="normal" in="SourceGraphic" in2="effect1_dropShadow_311_749" result="shape"/>
</filter>
<clipPath id="clip0_311_749">
<rect width="53.3333" height="53.3333" fill="white" transform="translate(33.3333 29.3334)"/>
</clipPath>
</defs>
</svg>
