<svg width="120" height="120" viewBox="0 0 120 120" fill="none" xmlns="http://www.w3.org/2000/svg">
<g filter="url(#filter0_d_311_732)">
<rect x="20" y="16" width="80" height="80" rx="30" fill="#29AAE3"/>
<g clip-path="url(#clip0_311_732)">
<path d="M59.1563 29.5001C58.4896 29.698 57.6876 30.4376 57.3959 31.1251C57.1146 31.7813 57.0834 32.7397 57.323 33.3126L57.4896 33.7084L55.9271 35.2397C55.0626 36.0938 54.3126 36.8022 54.2605 36.8126C54.2084 36.8334 53.9688 36.7813 53.7396 36.6876C53.1251 36.4376 52.1355 36.4688 51.5105 36.7709C50.8646 37.0626 50.198 37.7813 49.948 38.4272C49.7188 39.0313 49.7709 40.1459 50.0521 40.7397C50.7501 42.1876 52.5521 42.8126 54.0001 42.1042C55.3542 41.4376 55.9896 39.8647 55.4792 38.4272L55.323 37.9897L56.9376 36.4376L58.5521 34.8855L59.0938 35.073C59.3959 35.1772 59.8438 35.2605 60.1042 35.2605C60.5417 35.2605 60.7709 35.198 61.6251 34.8438L61.948 34.7188L66.2813 38.0417L70.6251 41.3647L70.5417 41.7292C70.3959 42.448 70.4792 43.2709 70.7813 43.8647C71.2917 44.9167 72.2396 45.4792 73.4792 45.4792C75.4688 45.4688 76.8751 43.4167 76.1667 41.5417L75.9688 41.0417L77.2917 39.6772L78.6146 38.3022L79.0209 38.448C79.2501 38.5313 79.7292 38.5938 80.1042 38.5938C80.9792 38.6042 81.6771 38.2917 82.2605 37.6251C83.948 35.7084 82.6146 32.7605 80.0521 32.7605C78.0417 32.7605 76.6355 34.6876 77.2709 36.573L77.4792 37.1876L76.1771 38.573C75.4584 39.3334 74.8646 39.9584 74.8438 39.9584C74.8334 39.9584 74.6459 39.8855 74.448 39.8022C73.8438 39.5522 72.7396 39.5938 72.1355 39.9063C71.8542 40.0417 71.5834 40.1251 71.5209 40.0938C71.4063 40.0209 67.3855 36.9272 64.4896 34.6876C63.4688 33.9063 62.8855 33.3751 62.9063 33.2813C62.9271 33.198 62.9688 32.8438 63.0001 32.4897C63.0626 31.5626 62.8126 30.8751 62.1459 30.2188C61.323 29.4063 60.2813 29.1459 59.1563 29.5001ZM60.6771 31.0417C61.7084 31.4792 61.7084 33.0522 60.6771 33.5417C59.7396 33.9897 58.7292 33.3438 58.7292 32.3022C58.7292 31.7501 58.9376 31.3855 59.4063 31.1042C59.8021 30.8542 60.1876 30.8438 60.6771 31.0417ZM80.8751 34.5522C81.4584 35.0105 81.6251 35.7813 81.2501 36.3855C80.698 37.3022 79.2709 37.2397 78.823 36.2813C78.6042 35.8334 78.6042 35.5834 78.7917 35.1147C79.1042 34.3855 80.2605 34.073 80.8751 34.5522ZM53.7188 38.5417C54.0001 38.8438 54.0626 39.0001 54.0626 39.3855C54.0626 40.2709 53.5417 40.823 52.698 40.823C51.573 40.823 50.9167 39.448 51.6355 38.6042C52.0001 38.1667 52.2396 38.073 52.8542 38.1251C53.2917 38.1563 53.4271 38.2188 53.7188 38.5417ZM74.2084 41.4272C75.2709 42.2605 74.7709 43.9167 73.448 43.9167C72.6042 43.9167 72.0417 43.3751 72.0417 42.573C72.0417 41.7188 72.5626 41.2188 73.448 41.2084C73.7813 41.2084 74.0105 41.2709 74.2084 41.4272Z" fill="white"/>
<path d="M57.7292 40.8231C57.6042 40.896 57.4167 41.0731 57.3125 41.2085C57.1562 41.4481 57.1354 41.9168 57.1042 46.6043C57.0833 50.8856 57.0521 51.7398 56.9375 51.6981C56.8542 51.6668 56.5937 51.5835 56.3542 51.5106C56.125 51.4377 55.8854 51.3023 55.8333 51.2085C55.6354 50.8439 55.0729 50.6877 53.9687 50.6877H52.9271L52.7083 50.1981L52.4896 49.7085L53.2187 48.9793C54.0521 48.1252 54.1667 47.9273 54.1667 47.3856C54.1667 46.8231 53.6354 46.1148 52.4167 45.0523C51.4479 44.1981 50.8854 44.2814 49.6875 45.4377L48.9687 46.1356L48.4687 45.9273L47.9687 45.7293L47.9167 44.5314C47.8646 43.2398 47.7812 43.0314 47.25 42.7085C46.9792 42.5418 46.7083 42.5106 45.5208 42.5106C43.9375 42.5106 43.6458 42.6043 43.2604 43.1773C43.0521 43.4898 43.0208 43.6564 43.0208 44.6356V45.7398L42.5729 45.9168C42.3333 46.021 42.0937 46.1043 42.0417 46.1043C41.9896 46.1043 41.5833 45.7606 41.1458 45.3335C39.9271 44.146 39.4896 44.1564 38.125 45.4377C36.9271 46.5731 36.5625 47.2814 36.8854 47.9064C36.9479 48.0314 37.3333 48.4689 37.7292 48.8752L38.4583 49.6148L38.2708 50.1564L38.0729 50.6877H36.9792C36.0833 50.6877 35.8229 50.7293 35.5521 50.896C34.9167 51.2814 34.8438 51.5106 34.8438 53.1356C34.8438 54.4168 34.875 54.6356 35.0521 54.9585C35.3854 55.5314 35.8125 55.6877 37.0312 55.6877H38.0833L38.2604 56.1773L38.4375 56.6564L37.7083 57.4064C36.6979 58.4585 36.5417 58.9689 37.0312 59.6877C37.1771 59.896 37.2917 60.1148 37.2917 60.1564C37.2917 60.2085 37.1354 60.6668 36.9375 61.1668C35.8333 64.0418 35.6354 67.5939 36.3958 70.6148C37.9062 76.5731 42.6979 81.1252 48.7292 82.3543C52.4167 83.1043 56.625 82.4064 59.7812 80.521C61.5937 79.4481 62.0104 78.9689 61.5937 78.4168C61.2292 77.9273 60.8542 77.9793 59.7604 78.6877C58.4792 79.5106 57.6979 79.896 56.4271 80.3231C54.6354 80.9168 53.8021 81.0523 51.8229 81.0523C49.8437 81.0523 49.0104 80.9168 47.2187 80.3231C42.1875 78.646 38.5208 74.2918 37.6458 68.9168C37.4479 67.7189 37.5104 64.9898 37.7604 63.8648C37.9062 63.1981 38.3958 61.5835 38.5104 61.3856C38.5417 61.3335 38.6667 61.396 38.7917 61.5106C39.1146 61.8127 39.6146 61.9481 40 61.8335C40.1771 61.7814 40.3125 61.7606 40.3125 61.7814C40.3125 61.8023 40.1771 62.2293 40.0104 62.7398C39.4792 64.3231 39.3437 65.3127 39.4062 67.1981C39.4687 69.2085 39.7396 70.3752 40.5208 72.0106C42.6562 76.5002 46.9583 79.2293 51.8542 79.2293C57.8958 79.2293 63.0104 74.9064 64.125 68.8648C64.375 67.4689 64.2812 65.0523 63.9271 63.6773C63.3437 61.4689 62.2708 59.6043 60.6354 57.9689C60.0833 57.4168 59.2604 56.7189 58.8125 56.4168C58.1042 55.9481 56.75 55.2502 56.125 55.0314C55.9687 54.9793 55.9583 54.9168 56.0417 54.6981C56.1042 54.5418 56.1458 54.1148 56.1458 53.7502C56.1458 52.9585 56.0417 52.9793 57.4375 53.5627C59.1667 54.2918 60.7083 55.3752 62.1458 56.8543C64.0625 58.8439 65.3021 61.1981 65.9062 64.021C66.1667 65.271 66.1667 68.3023 65.8958 69.5314C65.4583 71.5627 64.7708 73.146 63.5937 74.9168C63.1458 75.5835 62.8125 76.1877 62.8125 76.3335C62.8125 76.6668 63.2187 77.0418 63.5833 77.0418C63.9479 77.0418 64.3542 76.6356 65.0625 75.5627C66.4375 73.4793 67.2917 71.1252 67.6562 68.3648L67.7187 67.8752H76.2083H84.6979L84.9479 67.6148C85.2812 67.2918 85.2812 66.896 84.9479 66.5731C84.7187 66.3439 84.6146 66.3127 83.8542 66.3127H83.0208V62.9793C83.0208 59.7814 83.0104 59.6356 82.8125 59.4377C82.5 59.1252 81.9479 59.1564 81.6771 59.5002C81.4687 59.771 81.4583 59.896 81.4583 63.0418V66.3127H80.0521H78.6458L78.6667 55.8648L78.6979 45.4273L80.0833 45.396L81.4583 45.3648V50.9273C81.4583 56.396 81.4583 56.5002 81.6771 56.771C81.9479 57.1148 82.5 57.146 82.8125 56.8335C83.0208 56.6252 83.0208 56.4898 83.0208 50.6564C83.0208 44.9273 83.0104 44.6877 82.8125 44.3648C82.5104 43.8752 82.0729 43.7918 79.8021 43.8335C77.6771 43.8648 77.5208 43.9064 77.2396 44.5002C77.1042 44.7918 77.0833 46.2398 77.0833 55.5731V66.3127H76.7187H76.3542V57.896C76.3542 49.7189 76.3437 49.4793 76.1458 49.1564C76.0312 48.9689 75.8125 48.7814 75.6562 48.7398C75.5 48.6877 74.4375 48.6564 73.3125 48.6564C71.3958 48.6564 71.25 48.6668 70.9687 48.8752C70.8125 48.9898 70.6146 49.2085 70.5521 49.3439C70.4479 49.5314 70.4167 51.521 70.4167 57.9481V66.3127H70.0521H69.6875V55.7814C69.6875 48.2398 69.6562 45.1981 69.5729 45.0314C69.2812 44.4585 69.1875 44.4377 66.7708 44.4377C64.8646 44.4377 64.4896 44.4585 64.2812 44.6043C63.7604 44.9793 63.75 45.0731 63.75 50.8648L63.7396 56.2606L63.3854 55.8439L63.0208 55.4273V51.7293C63.0208 47.5418 63.0208 47.5627 62.3021 47.5627C62.0312 47.5627 61.8437 47.6356 61.7083 47.7814C61.5208 47.9898 61.5104 48.2189 61.4792 51.0106C61.4583 52.6668 61.4271 54.021 61.4062 54.021C61.375 54.021 61.1354 53.8648 60.8646 53.6668C60.5833 53.4689 59.9896 53.1043 59.5312 52.8543L58.6979 52.396L58.6667 47.3231L58.6458 42.2502H60.0417H61.4375L61.4792 43.5939C61.5104 44.7398 61.5417 44.9689 61.7083 45.1564C61.9687 45.4377 62.5312 45.4481 62.8125 45.1668C63 44.9793 63.0208 44.8231 63.0208 43.1773V41.396L62.6667 41.0418L62.3125 40.6877H60.1458C58.6042 40.6981 57.8958 40.7293 57.7292 40.8231ZM46.3229 44.6981C46.3854 46.0523 46.4583 46.4168 46.7917 46.7918C46.9583 46.9793 47.1458 47.146 47.2083 47.146C47.2604 47.146 47.625 47.2814 48.0208 47.4585C49.2083 47.9793 49.5833 47.8648 50.7812 46.6356L51.2917 46.1043L51.8958 46.6981C52.2292 47.0314 52.5 47.3439 52.5 47.4064C52.5 47.4689 52.1667 47.8439 51.7708 48.2398C51 49.0002 50.8125 49.3752 50.9479 49.9064C51.1146 50.5731 51.5937 51.5835 51.8854 51.8856C52.1875 52.1877 52.2187 52.1981 53.3854 52.2293L54.5833 52.271V53.1981V54.1252H53.4687C51.9687 54.1252 51.8333 54.2085 51.3333 55.4377C50.7083 56.9585 50.7292 57.0523 51.7187 58.0731C52.1458 58.521 52.5 58.9168 52.5 58.9689C52.5 59.021 52.2292 59.3335 51.9062 59.6668L51.3125 60.271L50.5208 59.4898C49.6979 58.6981 49.4062 58.5418 48.8229 58.6356C48.4583 58.6877 47.2396 59.1877 46.8854 59.4377C46.5417 59.6773 46.3646 60.3231 46.3542 61.3335V62.2293L45.9271 62.3023C45.6979 62.3439 45.3021 62.3439 45.0521 62.3127L44.6042 62.2398L44.5625 61.1043C44.5417 60.1564 44.5 59.9273 44.3125 59.6773C44.0312 59.3127 42.4167 58.6043 41.8437 58.6043C41.4792 58.6043 41.3542 58.6877 40.625 59.396C39.6771 60.3127 39.625 60.3231 38.9062 59.521L38.4375 59.0002L39.2083 58.1773C40.2396 57.1043 40.2708 56.9377 39.7187 55.6043C39.1667 54.2606 39.0729 54.1877 37.5729 54.1252L36.4062 54.0731L36.375 53.1564L36.3437 52.2502H37.4687C39.0521 52.2502 39.1042 52.2189 39.7812 50.6148C40.2812 49.4481 40.2187 49.2085 39.1354 48.1043L38.3854 47.3439L39.0417 46.7085L39.6979 46.0731L40.5104 46.8752C41.5521 47.9168 41.7917 47.9585 43.1667 47.3856C44.4271 46.8543 44.5208 46.7085 44.5625 45.3439C44.5833 44.7606 44.6146 44.2189 44.6354 44.146C44.6771 44.0523 44.9062 44.021 45.4896 44.0418L46.3021 44.0731L46.3229 44.6981ZM68.125 56.1564C68.125 65.8335 68.1146 66.3127 67.9375 66.3127C67.7812 66.3127 67.7396 66.146 67.625 65.1356C67.3958 62.9689 66.8437 61.1668 65.8229 59.2502L65.3125 58.2918V52.146V46.0002H66.7187H68.125V56.1564ZM74.7917 58.2398V66.3127H73.3854H71.9792V58.3127C71.9792 53.9064 72.0104 50.271 72.0521 50.2398C72.0833 50.1981 72.7187 50.1668 73.4583 50.1668H74.7917V58.2398ZM54.875 56.271C55.3542 56.4064 55.9167 56.6148 56.1354 56.7189C56.4896 56.9064 56.5208 56.9585 56.4792 57.271C56.3958 58.0002 57.2604 58.4273 57.8021 57.9377C58.0104 57.7502 58.0312 57.7502 58.5729 58.1773C59.1771 58.6356 60.0833 59.5627 60.5625 60.1877L60.8542 60.5731L60.6354 60.8543C60.3437 61.2293 60.3646 61.5731 60.6875 61.896C60.9062 62.1252 61.0104 62.1564 61.3125 62.0939C61.6562 62.0314 61.6771 62.0523 61.875 62.4793C62.1771 63.1564 62.5729 64.6252 62.6562 65.3439L62.7292 66.0002H61.5208C60.4479 66.0002 60.2917 66.021 60.1042 66.2085C59.7917 66.521 59.8229 67.0731 60.1667 67.3439C60.4062 67.5314 60.5937 67.5627 61.5729 67.5627C62.6771 67.5627 62.7083 67.5731 62.7083 67.7918C62.7083 68.271 62.3125 69.9273 62.0104 70.6877L61.7187 71.4689L61.3125 71.4377C60.5625 71.3648 60.1562 72.1043 60.625 72.6981L60.8333 72.9585L60.4375 73.4689C59.9271 74.1148 59.1458 74.8856 58.5 75.396L57.9896 75.8023L57.7604 75.5835C57.2292 75.0939 56.375 75.5314 56.4896 76.2502C56.5417 76.5939 56.5312 76.6043 55.9479 76.8648C55.3229 77.1356 53.9271 77.5002 53.1042 77.6148L52.6042 77.6773V76.4898C52.6042 75.4481 52.5833 75.2814 52.3958 75.0835C52.1146 74.7814 51.5312 74.7814 51.25 75.0627C51.0625 75.2502 51.0417 75.4064 51.0417 76.4689C51.0417 77.5002 51.0208 77.6668 50.875 77.6668C50.4375 77.6668 48.5521 77.2085 47.8854 76.9481C47.1458 76.646 47.1354 76.646 47.1667 76.2918C47.2396 75.5418 46.3646 75.0523 45.8854 75.5835C45.7812 75.6981 45.6458 75.7502 45.5625 75.7085C45.1146 75.4585 43.9479 74.3752 43.4271 73.7293L42.8125 72.9585L43.0208 72.6981C43.2917 72.3543 43.2812 72.0418 43.0104 71.6877C42.8229 71.4481 42.7187 71.4064 42.3542 71.4377L41.9271 71.4689L41.625 70.6877C41.3333 69.9273 40.9375 68.271 40.9375 67.7918C40.9375 67.5731 40.9687 67.5627 42.0729 67.5627C43.0521 67.5627 43.2396 67.5314 43.4792 67.3439C43.8229 67.0731 43.8542 66.521 43.5417 66.2085C43.3542 66.021 43.1979 66.0002 42.125 66.0002H40.9062L40.9792 65.396C41.0937 64.4273 41.4583 63.1981 41.9375 62.1668C42.4062 61.146 42.7604 60.5835 42.9271 60.5835C42.9792 60.5835 43.0208 61.0835 43.0208 61.6981C43.0208 62.9481 43.1667 63.3543 43.7187 63.6356C44.125 63.8439 45.4271 63.9377 46.4062 63.8231C47.1667 63.7293 47.2604 63.6981 47.5729 63.3543L47.9167 62.9793V61.8439C47.9167 60.6043 47.9167 60.6148 48.6042 60.3439L49.0312 60.1773L49.8021 60.9585C51.0208 62.1877 51.4896 62.1877 52.7812 60.9689C53.8542 59.9585 54.1667 59.5106 54.1667 59.0002C54.1667 58.4481 54.0521 58.2606 53.2083 57.396L52.4896 56.6564L52.6771 56.271L52.8646 55.8752L53.4375 55.9481C53.75 55.9898 54.3958 56.1356 54.875 56.271Z" fill="white"/>
<path d="M44.1347 48.1356C41.843 48.7606 40.3013 50.7814 40.3013 53.1564C40.2805 57.7814 45.8222 60.1251 49.1138 56.896C50.218 55.8127 50.8117 54.2814 50.6867 52.8022C50.5097 50.5627 48.9472 48.6981 46.8013 48.1356C46.0826 47.9481 44.8222 47.9481 44.1347 48.1356ZM46.9992 49.8439C48.1763 50.4064 48.9992 51.5627 49.1242 52.8335C49.2597 54.0835 48.5826 55.5002 47.5409 56.1981C46.5097 56.8752 45.1034 57.021 44.0409 56.5418C43.3951 56.2606 42.5409 55.4585 42.2284 54.8439C41.4367 53.2814 41.9367 51.1877 43.3222 50.2293C44.0826 49.6981 44.6555 49.5314 45.6242 49.5731C46.2701 49.6043 46.6451 49.6772 46.9992 49.8439Z" fill="white"/>
<path d="M44.5314 51.0627C43.2918 51.7398 42.8439 53.0418 43.4377 54.2293C44.4898 56.3023 47.5731 55.6564 47.7814 53.3231C47.8231 52.8023 47.7918 52.646 47.5314 52.146C47.0835 51.3023 46.5418 50.9585 45.5939 50.9273C45.0523 50.9064 44.7606 50.9377 44.5314 51.0627ZM46.0418 52.6877C46.646 53.3439 45.7085 54.3127 45.021 53.7293C44.6877 53.4585 44.6356 53.0731 44.896 52.7398C45.1877 52.3752 45.7293 52.3543 46.0418 52.6877Z" fill="white"/>
<path d="M51.2812 66.2294C50.8229 66.7398 47.8125 71.9794 47.8125 72.271C47.8125 72.6773 48.1458 72.9794 48.5833 72.9794C49.0417 72.9794 49.0833 72.9273 50.7292 70.1356C51.4271 68.9481 52.0417 67.9481 52.0937 67.9169C52.1458 67.896 52.9167 68.3023 53.8229 68.8231C55.625 69.8752 56.0104 69.9898 56.3646 69.5523C56.625 69.2294 56.6146 68.8856 56.3333 68.5627C55.9687 68.1773 52.125 66.0002 51.7812 66.0002C51.6146 66.0002 51.4062 66.1044 51.2812 66.2294Z" fill="white"/>
<path d="M69.948 69.6981C69.4688 70.1669 69.573 70.3961 70.8022 71.6356L71.9167 72.7711L70.8022 73.9065C69.573 75.1461 69.448 75.4273 69.9272 75.8752C70.4376 76.3544 70.6563 76.2294 72.2709 74.6148C74.2292 72.6565 74.2292 72.8856 72.2605 70.9273C70.6355 69.3023 70.4376 69.1981 69.948 69.6981Z" fill="white"/>
<path d="M75.3642 69.6981C74.885 70.1669 74.9892 70.396 76.2183 71.646L77.3329 72.771L76.2704 73.844C75.0829 75.0315 74.9371 75.344 75.3121 75.8231C75.4683 76.021 75.6246 76.1044 75.8746 76.1044C76.1663 76.1044 76.3954 75.9169 77.7496 74.5523C79.1767 73.1148 79.2913 72.969 79.2288 72.6981C79.1871 72.5106 78.6142 71.8648 77.6663 70.9169C76.0413 69.3023 75.8538 69.1981 75.3642 69.6981Z" fill="white"/>
<path d="M80.9794 69.5627C80.6982 69.6981 80.4898 70.1252 80.5836 70.4169C80.6148 70.5315 81.1253 71.1148 81.6982 71.6981L82.7503 72.771L81.7607 73.7815C81.2086 74.344 80.7086 74.9065 80.6357 75.0315C80.3753 75.5315 80.7815 76.1044 81.4065 76.1044C81.6669 76.1044 81.9482 75.8752 83.1982 74.6148C84.4169 73.3856 84.6878 73.0627 84.6878 72.8127C84.6878 72.5731 84.4169 72.2502 83.1461 70.9794C81.594 69.4273 81.4482 69.3335 80.9794 69.5627Z" fill="white"/>
</g>
</g>
<defs>
<filter id="filter0_d_311_732" x="0" y="0" width="120" height="120" filterUnits="userSpaceOnUse" color-interpolation-filters="sRGB">
<feFlood flood-opacity="0" result="BackgroundImageFix"/>
<feColorMatrix in="SourceAlpha" type="matrix" values="0 0 0 0 0 0 0 0 0 0 0 0 0 0 0 0 0 0 127 0" result="hardAlpha"/>
<feOffset dy="4"/>
<feGaussianBlur stdDeviation="10"/>
<feComposite in2="hardAlpha" operator="out"/>
<feColorMatrix type="matrix" values="0 0 0 0 0.160784 0 0 0 0 0.666667 0 0 0 0 0.890196 0 0 0 0.2 0"/>
<feBlend mode="normal" in2="BackgroundImageFix" result="effect1_dropShadow_311_732"/>
<feBlend mode="normal" in="SourceGraphic" in2="effect1_dropShadow_311_732" result="shape"/>
</filter>
<clipPath id="clip0_311_732">
<rect width="53.3333" height="53.3333" fill="white" transform="translate(33.3333 29.3334)"/>
</clipPath>
</defs>
</svg>
