<svg width="120" height="120" viewBox="0 0 120 120" fill="none" xmlns="http://www.w3.org/2000/svg">
<g filter="url(#filter0_d_311_702)">
<rect x="20" y="16" width="80" height="80" rx="30" fill="#9033F9"/>
<path d="M57.0938 30.9271C56.8438 31.1667 56.8333 31.2188 56.8333 32.7917V34.3958L56.1354 34.625C55.7396 34.75 54.9688 35.0729 54.4063 35.3333L53.3854 35.8021L52.2604 34.6979C50.6458 33.1042 50.8542 33.0521 48.375 35.5417C45.8854 38.0208 45.9375 37.8125 47.5313 39.4271L48.6354 40.5521L48.1667 41.5729C47.9063 42.1354 47.5833 42.9063 47.4583 43.2917L47.2292 44H45.625C44.0521 44 44 44.0104 43.7604 44.2604L43.5 44.5104V47.3333V50.1563L43.7604 50.4063C44 50.6563 44.0521 50.6667 45.625 50.6667H47.2292L47.4583 51.3646C47.5833 51.7604 47.9063 52.5313 48.1667 53.0938L48.6354 54.1146L47.5313 55.2396C45.9375 56.8542 45.8854 56.6458 48.375 59.125C50.8542 61.6146 50.6458 61.5625 52.2604 59.9688L53.3854 58.8646L54.4063 59.3333C54.9688 59.5938 55.7396 59.9167 56.1354 60.0417L56.8333 60.2708V61.875C56.8333 63.4479 56.8438 63.5 57.0938 63.7396L57.3438 64H60.1667H62.9896L63.2396 63.7396C63.4896 63.5 63.5 63.4479 63.5 61.875V60.2708L64.2083 60.0417C64.5938 59.9167 65.3646 59.5938 65.9271 59.3333L66.9479 58.8646L68.0729 59.9688C69.6875 61.5625 69.4792 61.6146 71.9583 59.125C74.4479 56.6458 74.3958 56.8542 72.8021 55.2396L71.6979 54.1146L72.1667 53.0938C72.4271 52.5313 72.75 51.7604 72.875 51.3646L73.1042 50.6667H74.7083C76.2813 50.6667 76.3333 50.6563 76.5729 50.4063L76.8333 50.1563V47.3333V44.5104L76.5729 44.2604C76.3333 44.0104 76.2813 44 74.7083 44H73.1042L72.875 43.2917C72.75 42.9063 72.4271 42.1354 72.1667 41.5729L71.6979 40.5521L72.8021 39.4271C74.3958 37.8125 74.4479 38.0208 71.9583 35.5417C69.4792 33.0521 69.6875 33.1042 68.0729 34.6979L66.9479 35.8021L65.9271 35.3333C65.3646 35.0729 64.5938 34.75 64.2083 34.625L63.5 34.3958V32.7917C63.5 31.2188 63.4896 31.1667 63.2396 30.9271L62.9896 30.6667H60.1667H57.3438L57.0938 30.9271ZM61.8333 33.8333C61.8333 35.7083 61.8542 35.7292 63.2396 36.0938C63.8333 36.2396 64.7083 36.5938 65.6042 37.0521C66.6146 37.5625 67.1042 37.7604 67.2708 37.7083C67.4063 37.6771 67.9792 37.1875 68.5521 36.6042L69.5938 35.5625L70.7604 36.7292L71.9375 37.8958L70.8438 39.0104C70.1875 39.6667 69.75 40.1979 69.75 40.3229C69.75 40.4375 70.0729 41.1563 70.4583 41.9271C70.9167 42.8229 71.2604 43.6667 71.4063 44.2604C71.7708 45.6458 71.7917 45.6667 73.6667 45.6667H75.1667V47.3333V49H73.6667C71.8021 49 71.7708 49.0208 71.4271 50.3542C71.2917 50.8958 70.9167 51.8125 70.4583 52.7188C69.9375 53.7708 69.7396 54.2604 69.7813 54.4375C69.8229 54.5729 70.3125 55.1458 70.8958 55.7188L71.9375 56.7604L70.7708 57.9271L69.6042 59.1042L68.4896 58.0104C67.8333 57.3542 67.3021 56.9167 67.1771 56.9167C67.0625 56.9167 66.3438 57.2396 65.5729 57.625C64.6771 58.0833 63.8333 58.4271 63.2396 58.5729C61.8542 58.9375 61.8333 58.9583 61.8333 60.8333V62.3333H60.1667H58.5V60.8333C58.5 58.9792 58.4792 58.9375 57.1458 58.5938C56.6354 58.4583 55.6354 58.0521 54.7813 57.625C53.7292 57.1042 53.2292 56.9063 53.0625 56.9479C52.9271 56.9896 52.3542 57.4792 51.7813 58.0625L50.7396 59.1042L49.5729 57.9375L48.3958 56.7708L49.4896 55.6563C50.1458 55 50.5833 54.4688 50.5833 54.3438C50.5833 54.2292 50.2604 53.5104 49.875 52.7396C49.4167 51.8438 49.0729 51 48.9271 50.4063C48.5625 49.0208 48.5417 49 46.6667 49H45.1667V47.3333V45.6667H46.6667C48.5313 45.6667 48.5625 45.6458 48.9063 44.3125C49.0417 43.7708 49.4167 42.8542 49.875 41.9479C50.3958 40.8958 50.5938 40.4063 50.5521 40.2292C50.5104 40.0938 50.0208 39.5208 49.4375 38.9479L48.3958 37.9063L49.5625 36.7396L50.7292 35.5625L51.8438 36.6563C52.5 37.3125 53.0313 37.75 53.1563 37.75C53.2708 37.75 53.9896 37.4271 54.7604 37.0417C55.6563 36.5833 56.5 36.2396 57.0938 36.0938C58.4792 35.7292 58.5 35.7083 58.5 33.8333V32.3333H60.1667H61.8333V33.8333Z" fill="white"/>
<path d="M58.6041 37.4479C56.3437 37.8437 54.3853 38.9062 52.8645 40.552C51.6874 41.8125 50.927 43.1979 50.4687 44.9375C50.1562 46.0833 50.1249 48.4479 50.4062 49.5625C50.8958 51.5 51.7395 52.9895 53.1874 54.4166C54.5728 55.7916 56.0416 56.6145 57.9374 57.0937C59.052 57.375 61.4166 57.3437 62.5624 57.0312C64.5103 56.5104 65.7812 55.7812 67.1978 54.3645C68.6145 52.9479 69.3437 51.6875 69.8749 49.7291C70.2082 48.5 70.2082 46.2291 69.8749 44.9687C69.3853 43.0937 68.5624 41.6354 67.2082 40.2916C65.8749 38.9583 64.3957 38.1041 62.5728 37.6354C61.6458 37.3958 59.4791 37.2916 58.6041 37.4479ZM61.4478 39.1145C65.9166 39.802 69.052 44.0312 68.4062 48.4791C67.5312 54.4166 60.9166 57.552 55.8333 54.427C51.4999 51.7604 50.5312 45.9479 53.7708 42.0104C55.5937 39.7812 58.552 38.6666 61.4478 39.1145Z" fill="white"/>
<path d="M59.5935 41.7604C59.3435 41.9999 59.3331 42.052 59.3331 43.5312C59.3331 44.8333 59.3122 45.0416 59.1664 45.0416C58.8851 45.0416 57.9268 46.0937 57.7914 46.5624C57.4997 47.5416 57.7081 48.3229 58.4476 49.052C59.5101 50.1145 60.8331 50.1145 61.9164 49.0312C62.2081 48.7395 62.4581 48.4166 62.4581 48.3333C62.4581 48.1874 62.7081 48.1666 64.3851 48.1666C66.3018 48.1666 66.3226 48.1666 66.5726 47.9062C66.9164 47.5729 66.9164 47.0937 66.5726 46.7604C66.3226 46.4999 66.3018 46.4999 64.3851 46.4999C62.7081 46.4999 62.4581 46.4791 62.4581 46.3333C62.4581 46.1249 61.3747 45.0416 61.1664 45.0416C61.0206 45.0416 60.9997 44.8333 60.9997 43.5312C60.9997 42.052 60.9893 41.9999 60.7393 41.7604C60.5831 41.5937 60.3643 41.4999 60.1664 41.4999C59.9685 41.4999 59.7497 41.5937 59.5935 41.7604ZM60.7393 46.7604C60.906 46.9166 60.9997 47.1354 60.9997 47.3333C60.9997 47.5312 60.906 47.7499 60.7393 47.9062C60.2289 48.427 59.3331 48.0624 59.3331 47.3333C59.3331 46.9062 59.7393 46.4999 60.1664 46.4999C60.3643 46.4999 60.5831 46.5937 60.7393 46.7604Z" fill="white"/>
<path d="M36.2604 65.9166L36 66.177V73.1666V80.1562L36.2604 80.4166L36.5104 80.6666L51.75 80.6458C66.5521 80.6145 67 80.6041 67.4583 80.4166C67.7188 80.302 71.2708 78.5 75.3646 76.4062C80.1875 73.927 82.9583 72.4583 83.25 72.1979C83.5 71.9791 83.8333 71.5416 83.9896 71.2083C84.2396 70.7083 84.2812 70.4791 84.2812 69.7812C84.2812 69.0208 84.2396 68.875 83.8542 68.052C83.3125 66.927 82.9167 66.4791 82.1146 66.0937C81.2708 65.6875 80.6667 65.6041 79.8958 65.802C79.5312 65.8958 76.8229 67.2083 73.375 68.9479L67.4583 71.927L67.5417 71.5833C67.6875 70.9062 67.6146 69.802 67.3854 69.302C67.0729 68.6145 66.4896 68.0104 65.8125 67.677L65.2188 67.3854L61.4792 67.3541L57.7292 67.3229L57.2292 66.8541C56.9479 66.5937 56.4062 66.2291 56.0208 66.052L55.3229 65.7187L45.9167 65.6875L36.5208 65.6562L36.2604 65.9166ZM45.1667 73.1666V79H41.4167H37.6667V73.1666V67.3333H41.4167H45.1667V73.1666ZM55.1042 67.4583C55.4062 67.5416 55.7292 67.7812 56.1979 68.2604L56.8646 68.9479L60.9062 69C64.7812 69.052 64.9583 69.0625 65.2292 69.2708C65.7708 69.677 65.9479 70.0104 65.9479 70.6562C65.9479 71.1562 65.8958 71.3229 65.6458 71.6458C65.1146 72.3437 65.1979 72.3333 59.75 72.3333H54.8438L54.5938 72.5937C54.4271 72.75 54.3333 72.9687 54.3333 73.1666C54.3333 73.3645 54.4271 73.5833 54.5938 73.7395L54.8438 74H60.9583H67.0729L73.5417 70.7291C77.0938 68.927 80.1562 67.427 80.3438 67.3854C80.8021 67.2916 81.4271 67.4895 81.75 67.8229C82.1042 68.1979 82.6667 69.3854 82.6667 69.7604C82.6667 70.177 82.4271 70.677 82.0833 70.9895C81.9167 71.1354 78.4062 72.9895 74.2812 75.1041L66.7812 78.9479L56.8125 78.9791L46.8333 79V73.1666V67.3333H50.75C53.4896 67.3333 54.8021 67.375 55.1042 67.4583Z" fill="white"/>
</g>
<defs>
<filter id="filter0_d_311_702" x="0" y="0" width="120" height="120" filterUnits="userSpaceOnUse" color-interpolation-filters="sRGB">
<feFlood flood-opacity="0" result="BackgroundImageFix"/>
<feColorMatrix in="SourceAlpha" type="matrix" values="0 0 0 0 0 0 0 0 0 0 0 0 0 0 0 0 0 0 127 0" result="hardAlpha"/>
<feOffset dy="4"/>
<feGaussianBlur stdDeviation="10"/>
<feComposite in2="hardAlpha" operator="out"/>
<feColorMatrix type="matrix" values="0 0 0 0 0.564706 0 0 0 0 0.2 0 0 0 0 0.976471 0 0 0 0.2 0"/>
<feBlend mode="normal" in2="BackgroundImageFix" result="effect1_dropShadow_311_702"/>
<feBlend mode="normal" in="SourceGraphic" in2="effect1_dropShadow_311_702" result="shape"/>
</filter>
</defs>
</svg>
