<svg width="120" height="41" viewBox="0 0 120 41" fill="none" xmlns="http://www.w3.org/2000/svg">
<g clip-path="url(#clip0_311_579)">
<path d="M110.135 0.907601H9.53468C9.16798 0.907601 8.80568 0.907601 8.43995 0.909601C8.1338 0.911601 7.83009 0.917411 7.521 0.922301C6.84951 0.930203 6.17961 0.989277 5.5171 1.09901C4.85552 1.21113 4.21467 1.42252 3.61622 1.72601C3.0185 2.03207 2.47235 2.42977 1.99757 2.90467C1.5203 3.37824 1.12246 3.92562 0.81935 4.52576C0.5154 5.12471 0.304641 5.76654 0.19435 6.42908C0.0830109 7.09079 0.0230984 7.76012 0.01515 8.43108C0.00587 8.73768 0.00489 9.0453 0 9.35194V32.4662C0.00489 32.7767 0.00587 33.0775 0.01515 33.3881C0.0231008 34.059 0.0830134 34.7283 0.19435 35.39C0.304336 36.0529 0.515108 36.6951 0.81935 37.2943C1.12233 37.8925 1.52022 38.4377 1.99757 38.9086C2.47054 39.3856 3.01705 39.7836 3.61622 40.0873C4.21467 40.3916 4.85545 40.6042 5.5171 40.7181C6.17972 40.827 6.84956 40.8861 7.521 40.8949C7.83009 40.9017 8.1338 40.9056 8.43995 40.9056C8.80567 40.9076 9.168 40.9076 9.53468 40.9076H110.135C110.494 40.9076 110.859 40.9076 111.219 40.9056C111.523 40.9056 111.836 40.9017 112.141 40.8949C112.811 40.8865 113.479 40.8274 114.141 40.7181C114.804 40.6034 115.448 40.3909 116.049 40.0873C116.647 39.7834 117.193 39.3854 117.666 38.9086C118.142 38.4358 118.541 37.8911 118.848 37.2943C119.15 36.6947 119.358 36.0525 119.467 35.39C119.578 34.7282 119.64 34.0591 119.652 33.3881C119.656 33.0775 119.656 32.7767 119.656 32.4662C119.664 32.1029 119.664 31.7416 119.664 31.3724V10.4437C119.664 10.0775 119.664 9.71424 119.656 9.35194C119.656 9.0453 119.656 8.73768 119.652 8.43104C119.64 7.76002 119.578 7.09084 119.467 6.42904C119.358 5.76688 119.149 5.1251 118.848 4.52572C118.23 3.3228 117.252 2.34363 116.049 1.72592C115.448 1.42317 114.804 1.21184 114.141 1.09892C113.48 0.988703 112.811 0.929608 112.141 0.922161C111.836 0.917281 111.523 0.911421 111.219 0.909471C110.859 0.907471 110.494 0.907471 110.135 0.907471V0.907601Z" fill="#A6A6A6"/>
<path d="M8.44487 40.0327C8.14019 40.0327 7.84287 40.0288 7.54058 40.022C6.91436 40.0139 6.2896 39.9593 5.67144 39.8589C5.09503 39.7596 4.53664 39.575 4.0147 39.311C3.49754 39.0492 3.02585 38.706 2.6177 38.2944C2.20364 37.8877 1.85891 37.416 1.59719 36.8979C1.33258 36.3765 1.14945 35.8176 1.05419 35.2407C0.951311 34.6208 0.895651 33.994 0.887687 33.3657C0.881347 33.1548 0.873047 32.4526 0.873047 32.4526V9.35205C0.873047 9.35205 0.881887 8.66064 0.887737 8.45751C0.895363 7.8302 0.950699 7.20437 1.05327 6.58544C1.14871 6.00697 1.33197 5.44646 1.59673 4.92334C1.85749 4.40566 2.2003 3.93358 2.61187 3.52539C3.02297 3.11334 3.49617 2.76832 4.01421 2.50292C4.53495 2.23981 5.09228 2.05645 5.66753 1.95898C6.28772 1.85755 6.91465 1.80271 7.54304 1.79492L8.44536 1.78271H111.214L112.127 1.79541C112.75 1.80281 113.371 1.85716 113.985 1.958C114.566 2.05669 115.13 2.24133 115.656 2.50585C116.694 3.0407 117.539 3.88688 118.071 4.92579C118.332 5.44529 118.512 6.00122 118.607 6.5747C118.71 7.19871 118.768 7.82945 118.78 8.46192C118.783 8.74511 118.783 9.04931 118.783 9.35205C118.791 9.72705 118.791 10.084 118.791 10.4438V31.3725C118.791 31.7358 118.791 32.0903 118.783 32.4477C118.783 32.7729 118.783 33.0708 118.779 33.3774C118.768 33.9986 118.711 34.6181 118.608 35.2309C118.515 35.812 118.333 36.3752 118.068 36.9009C117.805 37.4133 117.462 37.881 117.053 38.2866C116.644 38.7004 116.172 39.0457 115.653 39.3091C115.128 39.5751 114.566 39.7605 113.985 39.8589C113.367 39.9599 112.742 40.0144 112.116 40.022C111.823 40.0288 111.517 40.0327 111.219 40.0327L110.135 40.0347L8.44487 40.0327Z" fill="black"/>
<path d="M24.769 21.2083C24.7797 20.3736 25.0014 19.5552 25.4135 18.8293C25.8255 18.1033 26.4145 17.4934 27.1256 17.0562C26.6738 16.4111 26.0779 15.8801 25.385 15.5056C24.6922 15.131 23.9216 14.9232 23.1344 14.8985C21.4552 14.7223 19.8272 15.9034 18.9715 15.9034C18.0992 15.9034 16.7817 14.916 15.363 14.9452C14.4453 14.9749 13.551 15.2417 12.7671 15.7198C11.9832 16.1979 11.3365 16.8708 10.8901 17.6731C8.95607 21.0215 10.3987 25.9426 12.2513 28.6492C13.1782 29.9745 14.2615 31.455 15.6789 31.4025C17.066 31.345 17.584 30.518 19.2583 30.518C20.9171 30.518 21.4031 31.4025 22.8493 31.3691C24.3377 31.3449 25.2754 30.0379 26.1698 28.7C26.8358 27.7556 27.3483 26.7119 27.6882 25.6075C26.8235 25.2417 26.0856 24.6296 25.5665 23.8473C25.0474 23.065 24.77 22.1472 24.769 21.2083Z" fill="white"/>
<path d="M22.0373 13.1185C22.8489 12.1443 23.2487 10.8922 23.1518 9.62793C21.912 9.75815 20.7668 10.3507 19.9443 11.2875C19.5421 11.7452 19.2341 12.2776 19.0379 12.8544C18.8416 13.4312 18.761 14.041 18.8006 14.6489C19.4207 14.6553 20.0342 14.5209 20.5949 14.2558C21.1555 13.9907 21.6487 13.6019 22.0373 13.1185Z" fill="white"/>
<path d="M42.3025 28.0474H37.5691L36.4324 31.4038H34.4275L38.9109 18.9858H40.9939L45.4773 31.4038H43.4382L42.3025 28.0474ZM38.0593 26.4986H41.8113L39.9617 21.0513H39.91L38.0593 26.4986Z" fill="white"/>
<path d="M55.1599 26.8774C55.1599 29.6909 53.6541 31.4985 51.3816 31.4985C50.806 31.5286 50.2335 31.396 49.7297 31.1159C49.2259 30.8357 48.8112 30.4194 48.533 29.9145H48.49V34.3989H46.6316V22.3501H48.4305V23.8559H48.4646C48.7556 23.3535 49.1773 22.9393 49.6849 22.6574C50.1926 22.3756 50.7671 22.2366 51.3474 22.2553C53.6453 22.2553 55.1599 24.0717 55.1599 26.8774ZM53.2498 26.8774C53.2498 25.0444 52.3025 23.8393 50.8572 23.8393C49.4373 23.8393 48.4822 25.0698 48.4822 26.8774C48.4822 28.7016 49.4373 29.9233 50.8572 29.9233C52.3025 29.9233 53.2498 28.727 53.2498 26.8774Z" fill="white"/>
<path d="M65.1248 26.8774C65.1248 29.6909 63.6189 31.4985 61.3465 31.4985C60.7708 31.5286 60.1983 31.396 59.6945 31.1159C59.1907 30.8357 58.776 30.4194 58.4978 29.9145H58.4548V34.3989H56.5964V22.3501H58.3953V23.8559H58.4294C58.7204 23.3534 59.1421 22.9393 59.6498 22.6574C60.1574 22.3756 60.7319 22.2366 61.3123 22.2553C63.6101 22.2553 65.1248 24.0717 65.1248 26.8774ZM63.2146 26.8774C63.2146 25.0444 62.2674 23.8393 60.822 23.8393C59.4021 23.8393 58.447 25.0698 58.447 26.8774C58.447 28.7016 59.4021 29.9233 60.822 29.9233C62.2674 29.9233 63.2146 28.727 63.2146 26.8774H63.2146Z" fill="white"/>
<path d="M71.7107 27.9439C71.8484 29.1753 73.0447 29.9839 74.6795 29.9839C76.2459 29.9839 77.3728 29.1753 77.3728 28.0649C77.3728 27.1011 76.6931 26.5239 75.0838 26.1284L73.4744 25.7407C71.1941 25.1899 70.1355 24.1235 70.1355 22.3931C70.1355 20.2505 72.0027 18.7788 74.6541 18.7788C77.2781 18.7788 79.0769 20.2505 79.1375 22.3931H77.2615C77.1492 21.1538 76.1248 20.4058 74.6277 20.4058C73.1306 20.4058 72.1062 21.1626 72.1062 22.2642C72.1062 23.1421 72.7605 23.6587 74.3611 24.0542L75.7292 24.3901C78.2771 24.9926 79.3357 26.0161 79.3357 27.8325C79.3357 30.1557 77.4851 31.6108 74.5417 31.6108C71.7878 31.6108 69.9285 30.1899 69.8083 27.9438L71.7107 27.9439Z" fill="white"/>
<path d="M83.3464 20.2075V22.3501H85.0681V23.8218H83.3464V28.813C83.3464 29.5884 83.6912 29.9497 84.448 29.9497C84.6524 29.9461 84.8564 29.9318 85.0593 29.9067V31.3696C84.719 31.4332 84.3732 31.462 84.0271 31.4555C82.1941 31.4555 81.4792 30.7671 81.4792 29.0112V23.8218H80.1628V22.3501H81.4792V20.2075H83.3464Z" fill="white"/>
<path d="M86.0652 26.8774C86.0652 24.0288 87.7429 22.2388 90.3591 22.2388C92.9841 22.2388 94.6541 24.0288 94.6541 26.8774C94.6541 29.7339 92.9929 31.5161 90.3591 31.5161C87.7263 31.5161 86.0652 29.7339 86.0652 26.8774ZM92.7605 26.8774C92.7605 24.9233 91.865 23.77 90.3591 23.77C88.8533 23.77 87.9587 24.9321 87.9587 26.8774C87.9587 28.8393 88.8533 29.9839 90.3591 29.9839C91.865 29.9839 92.7605 28.8393 92.7605 26.8774H92.7605Z" fill="white"/>
<path d="M96.1863 22.3502H97.9587V23.8912H98.0017C98.1217 23.4099 98.4036 22.9846 98.8002 22.6867C99.1968 22.3888 99.6838 22.2366 100.179 22.2555C100.394 22.2547 100.607 22.278 100.816 22.3248V24.0631C100.546 23.9805 100.264 23.9426 99.9812 23.9508C99.7112 23.9398 99.4421 23.9874 99.1922 24.0903C98.9424 24.1932 98.7178 24.349 98.5338 24.5468C98.3498 24.7447 98.2108 24.9801 98.1264 25.2368C98.042 25.4934 98.0141 25.7653 98.0447 26.0338V31.4039H96.1863L96.1863 22.3502Z" fill="white"/>
<path d="M109.385 28.7446C109.135 30.3882 107.534 31.5161 105.486 31.5161C102.852 31.5161 101.218 29.7515 101.218 26.9204C101.218 24.0806 102.861 22.2388 105.408 22.2388C107.913 22.2388 109.488 23.9595 109.488 26.7046V27.3413H103.094V27.4536C103.064 27.7868 103.106 28.1225 103.216 28.4383C103.326 28.7542 103.502 29.0429 103.733 29.2855C103.963 29.528 104.242 29.7188 104.552 29.8451C104.862 29.9714 105.195 30.0304 105.529 30.0181C105.968 30.0592 106.409 29.9575 106.786 29.7281C107.162 29.4986 107.455 29.1537 107.62 28.7446L109.385 28.7446ZM103.102 26.0425H107.629C107.645 25.7429 107.6 25.4431 107.495 25.1619C107.391 24.8807 107.229 24.6241 107.02 24.4083C106.812 24.1926 106.561 24.0222 106.284 23.908C106.006 23.7938 105.708 23.7382 105.408 23.7446C105.105 23.7428 104.805 23.801 104.525 23.9157C104.245 24.0305 103.991 24.1995 103.776 24.4132C103.562 24.6268 103.392 24.8808 103.276 25.1604C103.161 25.4401 103.102 25.7399 103.102 26.0425V26.0425Z" fill="white"/>
<path d="M37.8262 9.63836C38.2158 9.6104 38.6067 9.66926 38.9709 9.8107C39.335 9.95213 39.6632 10.1726 39.9317 10.4562C40.2003 10.7399 40.4026 11.0796 40.524 11.4508C40.6454 11.8221 40.6829 12.2157 40.6338 12.6032C40.6338 14.5095 39.6035 15.6052 37.8262 15.6052H35.6709V9.63836H37.8262ZM36.5976 14.7614H37.7226C38.0011 14.778 38.2797 14.7324 38.5382 14.6277C38.7967 14.5231 39.0287 14.3622 39.2172 14.1566C39.4057 13.951 39.546 13.706 39.6278 13.4394C39.7097 13.1728 39.7311 12.8913 39.6904 12.6154C39.7281 12.3405 39.7046 12.0608 39.6215 11.7961C39.5383 11.5314 39.3977 11.2884 39.2096 11.0845C39.0216 10.8806 38.7907 10.7208 38.5337 10.6165C38.2766 10.5123 37.9996 10.4662 37.7226 10.4816H36.5976V14.7614Z" fill="white"/>
<path d="M41.6807 13.3518C41.6524 13.0558 41.6862 12.7573 41.7801 12.4752C41.8739 12.1931 42.0257 11.9338 42.2256 11.7138C42.4256 11.4938 42.6693 11.3181 42.9411 11.1978C43.213 11.0775 43.507 11.0154 43.8042 11.0154C44.1015 11.0154 44.3955 11.0775 44.6673 11.1978C44.9392 11.3181 45.1829 11.4938 45.3828 11.7138C45.5828 11.9338 45.7345 12.1931 45.8284 12.4752C45.9222 12.7573 45.9561 13.0558 45.9278 13.3518C45.9566 13.648 45.9232 13.947 45.8296 14.2295C45.736 14.512 45.5843 14.7718 45.3843 14.9922C45.1843 15.2127 44.9404 15.3888 44.6683 15.5093C44.3962 15.6299 44.1019 15.6921 43.8042 15.6921C43.5066 15.6921 43.2123 15.6299 42.9402 15.5093C42.668 15.3888 42.4241 15.2127 42.2241 14.9922C42.0242 14.7718 41.8725 14.512 41.7789 14.2295C41.6853 13.947 41.6519 13.648 41.6807 13.3518ZM45.0137 13.3518C45.0137 12.3757 44.5752 11.8049 43.8057 11.8049C43.0332 11.8049 42.5987 12.3757 42.5987 13.3518C42.5987 14.3357 43.0333 14.9021 43.8057 14.9021C44.5752 14.902 45.0137 14.3317 45.0137 13.3518H45.0137Z" fill="white"/>
<path d="M51.5732 15.6052H50.6514L49.7207 12.2888H49.6504L48.7236 15.6052H47.8105L46.5693 11.1023H47.4707L48.2773 14.5383H48.3438L49.2695 11.1023H50.1221L51.0479 14.5383H51.1182L51.9209 11.1023H52.8096L51.5732 15.6052Z" fill="white"/>
<path d="M53.8535 11.1023H54.709V11.8177H54.7754C54.888 11.5607 55.0781 11.3454 55.3189 11.2016C55.5598 11.0578 55.8395 10.9927 56.1191 11.0154C56.3382 10.9989 56.5582 11.032 56.7628 11.1121C56.9674 11.1922 57.1514 11.3173 57.3011 11.4781C57.4508 11.639 57.5623 11.8314 57.6275 12.0412C57.6927 12.2511 57.7099 12.4729 57.6777 12.6902V15.6052H56.7891V12.9134C56.7891 12.1897 56.4746 11.8299 55.8174 11.8299C55.6686 11.823 55.5201 11.8483 55.3821 11.9041C55.244 11.9599 55.1197 12.045 55.0175 12.1533C54.9154 12.2617 54.8379 12.3909 54.7904 12.532C54.7429 12.6732 54.7264 12.8229 54.7422 12.971V15.6053H53.8535L53.8535 11.1023Z" fill="white"/>
<path d="M59.0938 9.34448H59.9824V15.6052H59.0938V9.34448Z" fill="white"/>
<path d="M61.2178 13.3518C61.1895 13.0559 61.2234 12.7573 61.3172 12.4752C61.4111 12.1932 61.5629 11.9338 61.7628 11.7138C61.9628 11.4938 62.2065 11.3181 62.4784 11.1978C62.7503 11.0775 63.0443 11.0154 63.3416 11.0154C63.6389 11.0154 63.9329 11.0775 64.2047 11.1978C64.4766 11.3181 64.7203 11.4938 64.9203 11.7138C65.1203 11.9338 65.272 12.1932 65.3659 12.4752C65.4598 12.7573 65.4936 13.0559 65.4653 13.3518C65.4942 13.6481 65.4607 13.9471 65.3671 14.2296C65.2734 14.5121 65.1217 14.7719 64.9217 14.9923C64.7217 15.2127 64.4778 15.3889 64.2057 15.5094C63.9335 15.6299 63.6392 15.6922 63.3416 15.6922C63.0439 15.6922 62.7496 15.6299 62.4775 15.5094C62.2053 15.3889 61.9614 15.2127 61.7614 14.9923C61.5614 14.7719 61.4097 14.5121 61.3161 14.2296C61.2225 13.9471 61.189 13.6481 61.2178 13.3518ZM64.5508 13.3518C64.5508 12.3758 64.1123 11.805 63.3428 11.805C62.5703 11.805 62.1358 12.3758 62.1358 13.3519C62.1358 14.3357 62.5704 14.9021 63.3428 14.9021C64.1123 14.9021 64.5508 14.3318 64.5508 13.3518H64.5508Z" fill="white"/>
<path d="M66.4009 14.3318C66.4009 13.5212 67.0044 13.054 68.0757 12.9875L69.2954 12.9172V12.5286C69.2954 12.053 68.981 11.7844 68.3735 11.7844C67.8774 11.7844 67.5337 11.9666 67.4351 12.2849H66.5747C66.6655 11.5115 67.3931 11.0154 68.4146 11.0154C69.5435 11.0154 70.1802 11.5774 70.1802 12.5286V15.6052H69.3247V14.9724H69.2544C69.1117 15.1994 68.9113 15.3845 68.6737 15.5087C68.436 15.6329 68.1697 15.6918 67.9019 15.6794C67.7128 15.6991 67.5218 15.6789 67.341 15.6202C67.1602 15.5615 66.9938 15.4656 66.8524 15.3386C66.711 15.2116 66.5977 15.0564 66.52 14.883C66.4422 14.7096 66.4016 14.5218 66.4009 14.3318ZM69.2954 13.947V13.5706L68.1958 13.6409C67.5757 13.6824 67.2944 13.8933 67.2944 14.2903C67.2944 14.6955 67.646 14.9314 68.1294 14.9314C68.2711 14.9457 68.4142 14.9314 68.5502 14.8893C68.6862 14.8472 68.8123 14.7782 68.9211 14.6864C69.0299 14.5945 69.1191 14.4817 69.1834 14.3547C69.2477 14.2277 69.2858 14.0891 69.2954 13.947Z" fill="white"/>
<path d="M71.3481 13.3518C71.3481 11.929 72.0796 11.0276 73.2173 11.0276C73.4987 11.0146 73.778 11.082 74.0225 11.2219C74.267 11.3618 74.4667 11.5684 74.5981 11.8176H74.6646V9.34448H75.5532V15.6052H74.7017V14.8938H74.6314C74.4897 15.1413 74.2831 15.3453 74.0339 15.4838C73.7846 15.6223 73.5022 15.6899 73.2173 15.6794C72.0718 15.6795 71.3481 14.7781 71.3481 13.3518ZM72.2661 13.3518C72.2661 14.3069 72.7163 14.8816 73.4693 14.8816C74.2183 14.8816 74.6812 14.2986 74.6812 13.3557C74.6812 12.4173 74.2134 11.8259 73.4693 11.8259C72.7212 11.8259 72.2661 12.4046 72.2661 13.3518H72.2661Z" fill="white"/>
<path d="M79.23 13.3518C79.2017 13.0558 79.2356 12.7573 79.3294 12.4752C79.4232 12.1931 79.575 11.9338 79.7749 11.7138C79.9749 11.4938 80.2186 11.3181 80.4904 11.1978C80.7623 11.0775 81.0563 11.0154 81.3536 11.0154C81.6508 11.0154 81.9448 11.0775 82.2167 11.1978C82.4885 11.3181 82.7322 11.4938 82.9322 11.7138C83.1321 11.9338 83.2839 12.1931 83.3777 12.4752C83.4715 12.7573 83.5054 13.0558 83.4771 13.3518C83.5059 13.648 83.4725 13.947 83.3789 14.2295C83.2853 14.512 83.1336 14.7718 82.9336 14.9922C82.7336 15.2127 82.4897 15.3888 82.2176 15.5093C81.9455 15.6299 81.6512 15.6921 81.3536 15.6921C81.0559 15.6921 80.7616 15.6299 80.4895 15.5093C80.2173 15.3888 79.9735 15.2127 79.7735 14.9922C79.5735 14.7718 79.4218 14.512 79.3282 14.2295C79.2346 13.947 79.2012 13.648 79.23 13.3518ZM82.563 13.3518C82.563 12.3757 82.1245 11.8049 81.355 11.8049C80.5826 11.8049 80.148 12.3757 80.148 13.3518C80.148 14.3357 80.5826 14.9021 81.355 14.9021C82.1245 14.902 82.563 14.3317 82.563 13.3518Z" fill="white"/>
<path d="M84.6694 11.1023H85.5249V11.8177H85.5913C85.704 11.5607 85.894 11.3454 86.1348 11.2016C86.3757 11.0578 86.6555 10.9927 86.9351 11.0154C87.1542 10.9989 87.3742 11.032 87.5788 11.1121C87.7834 11.1922 87.9673 11.3173 88.117 11.4781C88.2667 11.639 88.3783 11.8314 88.4435 12.0412C88.5087 12.2511 88.5258 12.4729 88.4937 12.6902V15.6052H87.605V12.9134C87.605 12.1897 87.2905 11.8299 86.6333 11.8299C86.4846 11.823 86.336 11.8483 86.198 11.9041C86.0599 11.9599 85.9356 12.045 85.8335 12.1533C85.7313 12.2617 85.6539 12.3909 85.6063 12.532C85.5588 12.6732 85.5423 12.8229 85.5581 12.971V15.6053H84.6694V11.1023Z" fill="white"/>
<path d="M93.5151 9.9812V11.1228H94.4907V11.8713H93.5151V14.1868C93.5151 14.6585 93.7095 14.865 94.1519 14.865C94.2651 14.8646 94.3783 14.8578 94.4907 14.8445V15.5847C94.3311 15.6133 94.1694 15.6285 94.0073 15.6301C93.019 15.6301 92.6255 15.2825 92.6255 14.4143V11.8713H91.9106V11.1228H92.6255V9.9812H93.5151Z" fill="white"/>
<path d="M95.7046 9.34448H96.5854V11.8259H96.6558C96.7739 11.5666 96.9691 11.35 97.2148 11.2057C97.4605 11.0613 97.7447 10.9962 98.0288 11.0193C98.2467 11.0074 98.4646 11.0438 98.6669 11.1259C98.8692 11.2079 99.0508 11.3336 99.199 11.4939C99.3471 11.6543 99.458 11.8453 99.5238 12.0534C99.5896 12.2616 99.6086 12.4817 99.5795 12.698V15.6052H98.69V12.9172C98.69 12.198 98.355 11.8337 97.7271 11.8337C97.5743 11.8212 97.4207 11.8422 97.2769 11.8953C97.1332 11.9483 97.0027 12.0321 96.8947 12.1409C96.7867 12.2496 96.7038 12.3806 96.6517 12.5248C96.5997 12.6689 96.5797 12.8227 96.5933 12.9753V15.6052H95.7046L95.7046 9.34448Z" fill="white"/>
<path d="M104.761 14.3895C104.64 14.801 104.379 15.157 104.022 15.3951C103.665 15.6333 103.236 15.7385 102.81 15.6922C102.513 15.7 102.218 15.6432 101.946 15.5257C101.673 15.4082 101.43 15.2327 101.232 15.0116C101.034 14.7905 100.887 14.5289 100.8 14.2451C100.713 13.9613 100.689 13.662 100.73 13.368C100.69 13.0731 100.715 12.7732 100.801 12.4885C100.888 12.2038 101.034 11.9411 101.231 11.718C101.428 11.4949 101.671 11.3167 101.942 11.1955C102.214 11.0743 102.509 11.0129 102.806 11.0155C104.059 11.0155 104.815 11.8715 104.815 13.2855V13.5955H101.635V13.6453C101.621 13.8106 101.642 13.9769 101.696 14.1337C101.75 14.2904 101.837 14.4341 101.949 14.5556C102.062 14.677 102.199 14.7736 102.352 14.839C102.504 14.9044 102.669 14.9372 102.834 14.9353C103.047 14.9609 103.262 14.9226 103.453 14.8254C103.644 14.7282 103.801 14.5764 103.906 14.3894L104.761 14.3895ZM101.635 12.9383H103.91C103.921 12.7872 103.9 12.6354 103.849 12.4927C103.798 12.3499 103.718 12.2195 103.614 12.1096C103.509 11.9997 103.383 11.9129 103.243 11.8548C103.103 11.7966 102.953 11.7683 102.801 11.7718C102.647 11.7699 102.495 11.7987 102.353 11.8567C102.21 11.9146 102.081 12.0005 101.972 12.1092C101.864 12.2179 101.778 12.3473 101.72 12.4897C101.662 12.6321 101.633 12.7846 101.635 12.9383H101.635Z" fill="white"/>
</g>
<defs>
<clipPath id="clip0_311_579">
<rect width="119.664" height="40" fill="white" transform="translate(0 0.907715)"/>
</clipPath>
</defs>
</svg>
