<svg width="83" height="83" viewBox="0 0 83 83" fill="none" xmlns="http://www.w3.org/2000/svg">
<g filter="url(#filter0_d_311_555)">
<circle cx="41.7592" cy="33.6298" r="25.2778" fill="#2AA3EF"/>
<path fill-rule="evenodd" clip-rule="evenodd" d="M52.1297 27.1985C51.367 27.5368 50.5459 27.7655 49.6856 27.869C50.5642 27.3418 51.2389 26.5088 51.5562 25.5156C50.7338 26.0032 49.8235 26.3571 48.8535 26.5473C48.0774 25.7203 46.9719 25.2039 45.7481 25.2039C43.398 25.2039 41.4921 27.1083 41.4921 29.4581C41.4921 29.7927 41.5311 30.1165 41.6031 30.4283C38.067 30.2513 34.9323 28.5564 32.8336 25.9827C32.4663 26.6111 32.2577 27.3418 32.2577 28.1218C32.2577 29.5977 33.0093 30.9002 34.1502 31.6622C33.4523 31.6405 32.7958 31.4491 32.2235 31.1301C32.2235 31.1482 32.2235 31.1662 32.2235 31.1843C32.2235 33.2452 33.689 34.9642 35.6364 35.3554C35.2789 35.4529 34.9043 35.5047 34.515 35.5047C34.2417 35.5047 33.9745 35.4782 33.7146 35.4276C34.2564 37.1178 35.828 38.348 37.69 38.3829C36.2331 39.5229 34.3979 40.2031 32.4041 40.2031C32.0612 40.2031 31.722 40.1838 31.3889 40.1441C33.2717 41.3515 35.5083 42.0557 37.912 42.0557C45.7383 42.0557 50.0187 35.5733 50.0187 29.9516C50.0187 29.7662 50.0139 29.5844 50.0065 29.4015C50.8375 28.802 51.5598 28.052 52.1297 27.1997V27.1985Z" fill="white"/>
</g>
<defs>
<filter id="filter0_d_311_555" x="0.92589" y="0.574273" width="81.6668" height="81.6668" filterUnits="userSpaceOnUse" color-interpolation-filters="sRGB">
<feFlood flood-opacity="0" result="BackgroundImageFix"/>
<feColorMatrix in="SourceAlpha" type="matrix" values="0 0 0 0 0 0 0 0 0 0 0 0 0 0 0 0 0 0 127 0" result="hardAlpha"/>
<feOffset dy="7.77778"/>
<feGaussianBlur stdDeviation="7.77778"/>
<feColorMatrix type="matrix" values="0 0 0 0 0 0 0 0 0 0 0 0 0 0 0 0 0 0 0.1 0"/>
<feBlend mode="normal" in2="BackgroundImageFix" result="effect1_dropShadow_311_555"/>
<feBlend mode="normal" in="SourceGraphic" in2="effect1_dropShadow_311_555" result="shape"/>
</filter>
</defs>
</svg>
