<svg width="83" height="83" viewBox="0 0 83 83" fill="none" xmlns="http://www.w3.org/2000/svg">
<g filter="url(#filter0_d_311_565)">
<circle cx="41.7221" cy="33.6298" r="25.2778" fill="#F52929"/>
<path fill-rule="evenodd" clip-rule="evenodd" d="M52.2223 25.9168C52.9062 26.7004 53.1476 28.474 53.1476 28.474C53.1476 28.474 53.389 30.5776 53.389 32.6811V34.6196C53.389 36.6819 53.1476 38.7855 53.1476 38.7855C53.1476 38.7855 52.9062 40.5591 52.2223 41.3427C51.3806 42.2841 50.4298 42.3675 49.958 42.4089C49.9337 42.4111 49.9107 42.4131 49.889 42.4151C46.6304 42.7038 41.7223 42.7038 41.7223 42.7038C41.7223 42.7038 35.6476 42.6626 33.7971 42.4564C33.6987 42.4331 33.5776 42.4157 33.4399 42.3959C32.8453 42.3102 31.941 42.18 31.2223 41.3427C30.5385 40.5591 30.2971 38.7855 30.2971 38.7855C30.2971 38.7855 30.0557 36.7232 30.0557 34.6197V32.6811C30.0557 30.5776 30.2971 28.474 30.2971 28.474C30.2971 28.474 30.4982 26.7005 31.2223 25.9168C32.064 24.9754 33.0149 24.8919 33.4866 24.8505C33.5109 24.8484 33.534 24.8464 33.5557 24.8444C36.8143 24.5969 41.7223 24.5557 41.7223 24.5557C41.7223 24.5557 46.6304 24.5969 49.889 24.8444C49.9226 24.8475 49.9594 24.8504 49.9992 24.8535C50.4835 24.8916 51.4045 24.9639 52.2223 25.9168ZM38.9062 38.4142V29.4639L46.5499 34.0422L38.9062 38.4142Z" fill="white"/>
</g>
<defs>
<filter id="filter0_d_311_565" x="0.888781" y="0.574273" width="81.6668" height="81.6668" filterUnits="userSpaceOnUse" color-interpolation-filters="sRGB">
<feFlood flood-opacity="0" result="BackgroundImageFix"/>
<feColorMatrix in="SourceAlpha" type="matrix" values="0 0 0 0 0 0 0 0 0 0 0 0 0 0 0 0 0 0 127 0" result="hardAlpha"/>
<feOffset dy="7.77778"/>
<feGaussianBlur stdDeviation="7.77778"/>
<feColorMatrix type="matrix" values="0 0 0 0 0 0 0 0 0 0 0 0 0 0 0 0 0 0 0.1 0"/>
<feBlend mode="normal" in2="BackgroundImageFix" result="effect1_dropShadow_311_565"/>
<feBlend mode="normal" in="SourceGraphic" in2="effect1_dropShadow_311_565" result="shape"/>
</filter>
</defs>
</svg>
